<?xml version="1.0" encoding="utf-8"?>
<?xml-stylesheet type="text/xsl" href="rss1.xsl"?>
<rss version="2.0" xmlns:atom="http://www.w3.org/2005/Atom" xmlns:content="http://purl.org/rss/1.0/modules/content/" xmlns:dc="http://purl.org/dc/elements/1.1/" xmlns:media="http://search.yahoo.com/mrss/">
<channel>
 <title>Getty</title>
 <link>http://www.gettyimg.com/</link>
 <atom:link href="http://www.gettyimg.com/" rel="self" type="application/rss+xml" />

 
                <item>
                <title><![CDATA[【Apple Music】WEB-RiP - Bon Jovi -  Livin' On A Prayer (1080p)]]></title>
                <link><![CDATA[https://sharemania.us/threads/bon-jovi-livin-on-a-prayer-1080p.242489/]]></link>
                <description><![CDATA[<article>
<blockquote class="messageText SelectQuoteContainer ugc baseHtml">
<img src="https://i.postimg.cc/V6Bjm1bk/Bon-Jovi-Livin-On-A-Prayer-mp4.jpg" class="bbCodeImage LbImage" alt="[​IMG]" data-url="https://i.postimg.cc/V6Bjm1bk/Bon-Jovi-Livin-On-A-Prayer-mp4.jpg" style=""><br>
<br>
<div class="bbCodeBlock bbCodeCode">
<div class="type">Code:</div>
<pre>General
Complete name                  : G:\Новая папка\Bon Jovi -  Livin' On A Prayer.mp4
Format                         : MPEG-4
Format profile                 : Base Media
Codec ID                       : isom (isom/iso2/avc1/mp41)
File size                      : 294 MiB
Duration                       : 4 min 6 s
Overall bit rate               : 9 982 kb/s
Frame rate                     : 30.000 FPS
Movie name                     : Livin' On A Prayer
Album                          : Bon Jovi Greatest Hits - The Ultimate Collection
Album/Performer                : Bon Jovi
Part/Position                  : 1
Part/Total                     : 1
Track name/Position            : 1
Track name/Total               : 17
Performer                      : Bon Jovi
Genre                          : Rock
ContentType                    : Music Video
Recorded date                  : 2011-06-28 07:00:00 UTC
Writing application            : Lavf56.30.100
Copyright                      : ℗ 1986 The Island Def Jam Music Group

Video
ID                             : 1
Format                         : AVC
Format/Info                    : Advanced Video Codec
Format profile                 : High@L4
Format settings                : CABAC / 5 Ref Frames
Format settings, CABAC         : Yes
Format settings, Reference fra : 5 frames
Format settings, Slice count   : 8 slices per frame
Codec ID                       : avc1
Codec ID/Info                  : Advanced Video Coding
Duration                       : 4 min 6 s
Bit rate                       : 9 692 kb/s
Width                          : 1 440 pixels
Height                         : 1 080 pixels
Display aspect ratio           : 4:3
Frame rate mode                : Constant
Frame rate                     : 30.000 FPS
Color space                    : YUV
Chroma subsampling             : 4:2:0
Bit depth                      : 8 bits
Scan type                      : Progressive
Bits/(Pixel*Frame)             : 0.208
Stream size                    : 285 MiB (97%)
Language                       : English
Color range                    : Limited
Color primaries                : BT.709
Transfer characteristics       : BT.709
Matrix coefficients            : BT.709
Codec configuration box        : avcC

Audio
ID                             : 2
Format                         : AAC LC
Format/Info                    : Advanced Audio Codec Low Complexity
Codec ID                       : mp4a-40-2
Duration                       : 4 min 6 s
Duration_LastFrame             : -2 ms
Bit rate mode                  : Constant
Bit rate                       : 288 kb/s
Channel(s)                     : 2 channels
Channel layout                 : L R
Sampling rate                  : 48.0 kHz
Frame rate                     : 46.875 FPS (1024 SPF)
Compression mode               : Lossy
Stream size                    : 8.34 MiB (3%)
Default                        : Yes
Alternate group                : 1

</pre>
</div>
<div class="bbCodeBlock bbCodeVfcHH HiddenContent">
<div class="attribution type">Hidden Content:</div>
<blockquote>You must either reply or click 'Like' to see the hidden information contained here.</blockquote>
</div>
<div class="messageTextEndMarker">&nbsp;</div>
</blockquote>
</article>]]></description>
                <author><![CDATA[vitalya3]]></author>
                </item>

                
                <item>
                <title><![CDATA[【Apple Music】WEB-RiP - Bon Jovi -  It's My Life (1080p)]]></title>
                <link><![CDATA[https://sharemania.us/threads/bon-jovi-its-my-life-1080p.242490/]]></link>
                <description><![CDATA[<article>
<blockquote class="messageText SelectQuoteContainer ugc baseHtml">
<img src="https://i.postimg.cc/43wWQzB5/Bon-Jovi-It-s-My-Life-mp4.jpg" class="bbCodeImage LbImage" alt="[​IMG]" data-url="https://i.postimg.cc/43wWQzB5/Bon-Jovi-It-s-My-Life-mp4.jpg" style=""><br>
<br>
<div class="bbCodeBlock bbCodeCode">
<div class="type">Code:</div>
<pre>General
Complete name                  : G:\Новая папка\Bon Jovi -  It's My Life.mp4
Format                         : MPEG-4
Format profile                 : Base Media
Codec ID                       : isom (isom/iso2/avc1/mp41)
File size                      : 214 MiB
Duration                       : 4 min 25 s
Overall bit rate               : 6 769 kb/s
Frame rate                     : 23.976 FPS
Movie name                     : It's My Life
Album                          : Bon Jovi Greatest Hits - The Ultimate Collection
Album/Performer                : Bon Jovi
Part/Position                  : 1
Part/Total                     : 1
Track name/Position            : 8
Track name/Total               : 17
Performer                      : Bon Jovi
Genre                          : Rock
ContentType                    : Music Video
Recorded date                  : 2011-06-28 07:00:00 UTC
Writing application            : Lavf56.30.100
Copyright                      : ℗ 2003 The Island Def Jam Music Group

Video
ID                             : 1
Format                         : AVC
Format/Info                    : Advanced Video Codec
Format profile                 : High@L4
Format settings                : CABAC / 4 Ref Frames
Format settings, CABAC         : Yes
Format settings, Reference fra : 4 frames
Format settings, Slice count   : 8 slices per frame
Codec ID                       : avc1
Codec ID/Info                  : Advanced Video Coding
Duration                       : 4 min 25 s
Bit rate                       : 6 503 kb/s
Width                          : 1 920 pixels
Height                         : 1 080 pixels
Display aspect ratio           : 16:9
Frame rate mode                : Constant
Frame rate                     : 23.976 (24000/1001) FPS
Color space                    : YUV
Chroma subsampling             : 4:2:0
Bit depth                      : 8 bits
Scan type                      : Progressive
Bits/(Pixel*Frame)             : 0.131
Stream size                    : 206 MiB (96%)
Language                       : English
Color range                    : Limited
Color primaries                : BT.709
Transfer characteristics       : BT.709
Matrix coefficients            : BT.709
Codec configuration box        : avcC

Audio
ID                             : 2
Format                         : AAC LC
Format/Info                    : Advanced Audio Codec Low Complexity
Codec ID                       : mp4a-40-2
Duration                       : 4 min 25 s
Duration_LastFrame             : -16 ms
Bit rate mode                  : Constant
Bit rate                       : 265 kb/s
Channel(s)                     : 2 channels
Channel layout                 : L R
Sampling rate                  : 48.0 kHz
Frame rate                     : 46.875 FPS (1024 SPF)
Compression mode               : Lossy
Stream size                    : 8.31 MiB (4%)
Default                        : Yes
Alternate group                : 1

</pre>
</div>
<div class="bbCodeBlock bbCodeVfcHH HiddenContent">
<div class="attribution type">Hidden Content:</div>
<blockquote>You must either reply or click 'Like' to see the hidden information contained here.</blockquote>
</div>
<div class="messageTextEndMarker">&nbsp;</div>
</blockquote>
</article>]]></description>
                <author><![CDATA[vitalya3]]></author>
                </item>

                
                <item>
                <title><![CDATA[【HD Live Performances】WEB-RiP - Doja Cat - OKLOSER (Live at Coachella 2024) [YouTube VP9 4K 2160p]]]></title>
                <link><![CDATA[https://sharemania.us/threads/doja-cat-okloser-live-at-coachella-2024-youtube-vp9-4k-2160p.242491/]]></link>
                <description><![CDATA[<article>
<blockquote class="messageText SelectQuoteContainer ugc baseHtml">
<img src="https://i.imgur.com/Duua1bB.png" class="bbCodeImage LbImage" alt="[​IMG]" data-url="https://i.imgur.com/Duua1bB.png" style=""> <br>
<span style="font-family: 'Times New Roman'"><br>
<b>Artist:</b> Doja Cat<br>
<b>Title:</b> OKLOSER (Live at Coachella)<br>
<b>Year:</b> 2024<br>
<b>Size:</b> 199 MB (208.686.969 bytes)<br>
<b>Codec:</b> VP9 - OPUS<br>
<b>Resolution:</b> 3840x2160<br>
<b>Ripped by:</b> <a href="https://sharemania.us/members/164517/" class="username" data-user="164517, @stargamer">@stargamer</a><br>
<b>Source:</b> <a href="https://www.youtube.com/watch?v=WGE80M_ImOI" target="_blank" class="externalLink" rel="nofollow">YouTube</a><br>
<b>Host:</b> Pixeldrain<br>
<br>
Download:<br>
<span style="font-family: 'Arial'">
<div class="bbCodeBlock bbCodeVfcHH HiddenContent">
<div class="attribution type">Hidden Content:</div>
<blockquote>You must either reply or click 'Like' to see the hidden information contained here.</blockquote>
</div></span></span>
<div class="messageTextEndMarker">&nbsp;</div>
</blockquote>
</article>]]></description>
                <author><![CDATA[stargamer]]></author>
                </item>

                
                <item>
                <title><![CDATA[【HD Live Performances】WEB-RiP - Doja Cat - Demons (Live at Coachella 2024) [YouTube VP9 4K 2160p]]]></title>
                <link><![CDATA[https://sharemania.us/threads/doja-cat-demons-live-at-coachella-2024-youtube-vp9-4k-2160p.242494/]]></link>
                <description><![CDATA[<article>
<blockquote class="messageText SelectQuoteContainer ugc baseHtml">
<img src="https://i.imgur.com/9uJi8HY.png" class="bbCodeImage LbImage" alt="[​IMG]" data-url="https://i.imgur.com/9uJi8HY.png" style=""><br>
<span style="font-family: 'Times New Roman'"><br>
<b>Artist:</b> Doja Cat<br>
<b>Title:</b> Demons (Live at Coachella)<br>
<b>Year:</b> 2024<br>
<b>Size:</b> 465 MB (488.400.010 bytes)<br>
<b>Codec:</b> VP9 - OPUS<br>
<b>Resolution:</b> 3840x2160<br>
<b>Ripped by:</b> <a href="https://sharemania.us/members/164517/" class="username" data-user="164517, @stargamer">@stargamer</a><br>
<b>Source:</b> <a href="https://www.youtube.com/watch?v=sHZXATIqdr4" target="_blank" class="externalLink" rel="nofollow">YouTube</a><br>
<b>Host:</b> Pixeldrain<br>
<br>
Download:<br>
<span style="font-family: 'Arial'">
<div class="bbCodeBlock bbCodeVfcHH HiddenContent">
<div class="attribution type">Hidden Content:</div>
<blockquote>You must either reply or click 'Like' to see the hidden information contained here.</blockquote>
</div></span></span>
<div class="messageTextEndMarker">&nbsp;</div>
</blockquote>
</article>]]></description>
                <author><![CDATA[stargamer]]></author>
                </item>

                
                <item>
                <title><![CDATA[【HD Live Performances】WEB-RiP - Doja Cat - Wet Vagina (Live at Coachella 2024) [YouTube VP9 4K 2160p]]]></title>
                <link><![CDATA[https://sharemania.us/threads/doja-cat-wet-vagina-live-at-coachella-2024-youtube-vp9-4k-2160p.242492/]]></link>
                <description><![CDATA[<article>
<blockquote class="messageText SelectQuoteContainer ugc baseHtml">
<img src="https://i.imgur.com/TlzfgSz.png" class="bbCodeImage LbImage" alt="[​IMG]" data-url="https://i.imgur.com/TlzfgSz.png" style=""><br>
<span style="font-family: 'Times New Roman'"><br>
<b>Artist:</b> Doja Cat<br>
<b>Title:</b> Wet Vagina (Live at Coachella)<br>
<b>Year:</b> 2024<br>
<b>Size:</b> 448 MB (470.470.236 bytes)<br>
<b>Codec:</b> VP9 - OPUS<br>
<b>Resolution:</b> 3840x2160<br>
<b>Ripped by:</b> <a href="https://sharemania.us/members/164517/" class="username" data-user="164517, @stargamer">@stargamer</a><br>
<b>Source:</b> <a href="https://www.youtube.com/watch?v=g_4zfariPCY" target="_blank" class="externalLink" rel="nofollow">YouTube</a><br>
<b>Host:</b> Pixeldrain<br>
<br>
Download:<br>
<span style="font-family: 'Arial'">
<div class="bbCodeBlock bbCodeVfcHH HiddenContent">
<div class="attribution type">Hidden Content:</div>
<blockquote>You must either reply or click 'Like' to see the hidden information contained here.</blockquote>
</div></span></span>
<div class="messageTextEndMarker">&nbsp;</div>
</blockquote>
</article>]]></description>
                <author><![CDATA[stargamer]]></author>
                </item>

                
                <item>
                <title><![CDATA[【Apple Music】WEB-RiP - Zara Larsson - You Love Who You Love [Apple HD Music Video]]]></title>
                <link><![CDATA[https://sharemania.us/threads/zara-larsson-you-love-who-you-love-apple-hd-music-video.242493/]]></link>
                <description><![CDATA[<article>
<blockquote class="messageText SelectQuoteContainer ugc baseHtml">
<span style="font-size: 22px"><b>Zara Larsson - You Love Who You Love [Apple HD Music Video]</b></span><br>
<br>
<img src="https://imgur.com/ggOqTfD.jpg" class="bbCodeImage LbImage" alt="[​IMG]" data-url="https://imgur.com/ggOqTfD.jpg" style=""><br>
<br>
<div class="bbCodeBlock bbCodeCode">
<div class="type">Code:</div>
<pre>General
Format                         : MPEG-4
Codec ID                       : M4V  (isom/iso4/M4V /mp42)
File size                      : 174 MiB
Duration                       : 3 min 32 s
Overall bit rate mode          : Variable
Overall bit rate               : 6 868 kb/s
Movie name                     : You Love Who You Love
Performer                      : Zara Larsson
Genre                          : Pop
ContentType                    : Music Video
Recorded date                  : UTC 2024-02-09 08:00:00
Encoded date                   : UTC 2024-03-14 19:00:52
Tagged date                    : UTC 2024-03-14 19:00:52
Copyright                      : ℗ (C) 2023 Sommer House, under exclusive license to Epic Records, a division of Sony Music Entertainment.
Cover                          : Yes
Rating                         : None
GenreID                        : 1614
AppleStoreCountry              : Canada
AlbumTitleID                   : 570372593
AppleStoreCatalogID            : 1729450703

Video
ID                             : 2
Format                         : AVC
Format/Info                    : Advanced Video Codec
Format profile                 : High@L4
Format settings                : CABAC / 5 Ref Frames
Format settings, CABAC         : Yes
Format settings, Reference fra : 5 frames
Codec ID                       : avc1
Codec ID/Info                  : Advanced Video Coding
Duration                       : 3 min 32 s
Bit rate                       : 6 590 kb/s
Maximum bit rate               : 12.7 Mb/s
Width                          : 1 440 pixels
Height                         : 1 080 pixels
Display aspect ratio           : 4:3
Frame rate mode                : Constant
Frame rate                     : 25.000 FPS
Color space                    : YUV
Chroma subsampling             : 4:2:0
Bit depth                      : 8 bits
Scan type                      : Progressive
Bits/(Pixel*Frame)             : 0.170
Stream size                    : 167 MiB (96%)
Title                          : Core Media Video
Encoded date                   : UTC 2024-03-03 17:57:58
Tagged date                    : UTC 2024-03-14 19:00:55
Color range                    : Limited
Color primaries                : BT.709
Transfer characteristics       : BT.709
Matrix coefficients            : BT.709
Codec configuration box        : avcC

Audio
ID                             : 1
Format                         : AAC LC
Format/Info                    : Advanced Audio Codec Low Complexity
Codec ID                       : mp4a-40-2
Duration                       : 3 min 32 s
Duration_LastFrame             : -12 ms
Bit rate mode                  : Variable
Bit rate                       : 257 kb/s
Maximum bit rate               : 324 kb/s
Channel(s)                     : 2 channels
Channel layout                 : L R
Sampling rate                  : 48.0 kHz
Frame rate                     : 46.875 FPS (1024 SPF)
Compression mode               : Lossy
Stream size                    : 6.50 MiB (4%)
Title                          : Core Media Audio
Encoded date                   : UTC 2024-03-03 17:57:50
Tagged date                    : UTC 2024-03-14 19:00:55
</pre>
</div>
<div class="bbCodeBlock bbCodeVfcHH HiddenContent">
<div class="attribution type">Hidden Content:</div>
<blockquote>You must reply before you can see the hidden data contained here.</blockquote>
</div>
<div class="messageTextEndMarker">&nbsp;</div>
</blockquote>
</article>]]></description>
                <author><![CDATA[abby0511]]></author>
                </item>

                </channel></rss>